<svg width="44" height="44" viewBox="0 0 44 44" fill="none" xmlns="http://www.w3.org/2000/svg">
<path d="M34.375 31.625C36.0491 28.7031 37.125 26.125 37.125 22C37.125 17.875 36.0938 15.3227 34.375 12.375M13.548 16.5H7.5625C7.38016 16.5 7.2053 16.5724 7.07636 16.7014C6.94743 16.8303 6.875 17.0052 6.875 17.1875V26.8125C6.875 26.9948 6.94743 27.1697 7.07636 27.2986C7.2053 27.4276 7.38016 27.5 7.5625 27.5H13.548C13.8658 27.5002 14.1738 27.6104 14.4195 27.812L22.2802 34.2573C22.3827 34.3327 22.5041 34.3781 22.6309 34.3886C22.7577 34.3991 22.8849 34.3742 22.9984 34.3166C23.1119 34.2591 23.2072 34.1712 23.2737 34.0627C23.3402 33.9542 23.3752 33.8294 23.375 33.7021V10.2979C23.3749 10.1708 23.3396 10.0462 23.273 9.93796C23.2064 9.82971 23.1111 9.74205 22.9977 9.68472C22.8842 9.62738 22.7571 9.6026 22.6305 9.61315C22.5038 9.62369 22.3825 9.66914 22.2802 9.74445L14.4195 16.1898C14.1735 16.3907 13.8656 16.5003 13.548 16.5V16.5ZM30.25 27.5C31.087 25.832 31.625 23.9929 31.625 22C31.625 19.9796 31.1094 18.1844 30.25 16.5V27.5Z" stroke="#2D2A2A" stroke-width="2.75" stroke-linecap="round" stroke-linejoin="round"/>
</svg>
